<svg xmlns="http://www.w3.org/2000/svg" width="500" height="500" version="1.0" viewBox="0 0 375 375"><defs><clipPath id="a"><path d="M16.148 146.469h67.278v60.379H16.148Zm0 0"/></clipPath><clipPath id="b"><path d="M31.64 146.492c-.406 0-.816.047-1.226.133-2.527 1.215-4.586 3.574-6.332 5.719-.062.07-.121.144-.18.215a32.804 32.804 0 0 0-4.527 7.308c-2.313 5.336-3.313 11.2-2.71 16.988l.034.313c.156 1.422.41 2.82.735 4.215 1.253 5.14 3.746 10.234 7.394 14.113.168.18.324.36.492.54.387.456.797.89 1.254 1.288.313.278.625.543.938.82 2.578 2.348 5.468 4.31 8.656 5.72l.316.132a32.596 32.596 0 0 0 8.438 2.43l.34.05c.156.024.3.047.457.06h8.258c.046 0 .086-.013.132-.013l.313-.046a44.069 44.069 0 0 0 2.504-.434c5.297-1.18 10.511-3.602 14.582-7.25.289-.266.566-.527.855-.781 2.973-2.48 5.465-5.985 7.188-9.43l.144-.3c.48-.973.926-1.962 1.325-2.985 1.144-3.129 1.925-6.516 2.144-9.922v-3.887a28.369 28.369 0 0 0-.277-2.422l-.051-.277c-.469-3.047-1.238-6.129-2.563-8.922l-.18-.37c-1.109-2.337-2.41-4.556-4.011-6.587l-.18-.23c-1.047-1.371-2.25-2.614-3.539-3.758a14.556 14.556 0 0 1-.699-.602c-.59-.527-1.18-1.07-1.855-1.48-.625-.278-1.215-.348-1.864-.348h-.316c-.723.059-1.324.29-1.914.684-.625.543-1.07 1.133-1.371 1.902-.266.832-.266 1.52-.121 2.363.375.95.925 1.66 1.722 2.309a25.279 25.279 0 0 1 2.828 2.734l.34.387a24.336 24.336 0 0 1 4.524 7.547c1.472 4.156 2.133 8.707 1.34 13.09l-.098.433a62.92 62.92 0 0 1-.793 3.262c-1.156 3.695-3.254 7.367-6.07 10.055l-.325.3c-3.37 3.215-7.285 5.43-11.812 6.587l-.36.082c-1.785.457-3.78.699-5.757.699-1.614 0-3.215-.156-4.672-.492l-.3-.075a32.462 32.462 0 0 1-2.18-.566c-3.84-1.18-7.68-3.238-10.473-6.176l-.301-.324c-.363-.387-.734-.77-1.086-1.156-2.914-3.301-4.91-7.442-5.79-11.75-.831-4.504-.468-9.055.985-13.39 1.29-3.685 3.457-7.321 6.407-9.911 1.023-.863 2.203-1.742 2.878-2.926.325-.683.434-1.324.422-2.094-.074-.77-.41-1.445-.808-2.093-.551-.653-1.203-1.075-1.996-1.348a4.994 4.994 0 0 0-1.121-.133Zm0 0"/></clipPath><clipPath id="d"><path d="M.148.469h67.133V60.64H.148Zm0 0"/></clipPath><clipPath id="e"><path d="M15.64.492c-.406 0-.816.047-1.226.133-2.527 1.215-4.586 3.574-6.332 5.719-.062.07-.121.144-.18.215a32.804 32.804 0 0 0-4.527 7.308C1.062 19.203.062 25.067.665 30.855l.034.313c.156 1.422.41 2.82.735 4.215 1.254 5.14 3.746 10.234 7.394 14.113.168.18.324.36.492.54.387.456.797.89 1.254 1.288.313.278.625.543.938.82 2.578 2.348 5.468 4.31 8.656 5.72l.316.132a32.596 32.596 0 0 0 8.438 2.43l.34.05c.156.024.3.047.457.06h8.258c.046 0 .086-.013.132-.013l.313-.046a44.069 44.069 0 0 0 2.504-.434c5.297-1.18 10.511-3.602 14.582-7.25.289-.266.566-.527.855-.781 2.973-2.48 5.465-5.985 7.188-9.43l.144-.3c.48-.973.926-1.962 1.325-2.985 1.144-3.129 1.925-6.516 2.144-9.922v-3.887a28.369 28.369 0 0 0-.277-2.422l-.051-.277c-.469-3.047-1.238-6.129-2.563-8.922l-.18-.37c-1.109-2.337-2.41-4.556-4.011-6.587l-.18-.23c-1.047-1.371-2.25-2.614-3.539-3.758a14.556 14.556 0 0 1-.699-.602c-.59-.527-1.18-1.07-1.855-1.48-.625-.277-1.215-.348-1.864-.348h-.316c-.723.059-1.324.29-1.914.684-.625.543-1.07 1.133-1.371 1.902-.266.832-.266 1.52-.121 2.363.375.95.925 1.66 1.722 2.309a25.279 25.279 0 0 1 2.828 2.734l.34.387a24.336 24.336 0 0 1 4.524 7.547c1.472 4.156 2.133 8.707 1.34 13.09l-.098.433a62.92 62.92 0 0 1-.793 3.262c-1.156 3.695-3.254 7.367-6.07 10.055l-.325.3c-3.37 3.215-7.285 5.43-11.812 6.587l-.36.082c-1.785.457-3.78.699-5.757.699-1.614 0-3.215-.156-4.672-.492l-.3-.075a32.462 32.462 0 0 1-2.18-.566c-3.84-1.18-7.68-3.238-10.473-6.176l-.301-.324c-.363-.387-.734-.77-1.086-1.156-2.914-3.301-4.91-7.442-5.79-11.75-.831-4.504-.468-9.055.985-13.39 1.29-3.684 3.457-7.321 6.407-9.911 1.023-.863 2.203-1.742 2.878-2.926.325-.683.434-1.324.422-2.094-.074-.77-.41-1.445-.808-2.093C18.293 1.32 17.64.898 16.848.625a4.994 4.994 0 0 0-1.121-.133Zm0 0"/></clipPath><clipPath id="c"><path d="M0 0h68v61H0z"/></clipPath><clipPath id="f"><path d="M44.438 139.57h10.695v36.57H44.437Zm0 0"/></clipPath><clipPath id="g"><path d="M49.523 139.723c-.808.05-1.601.289-2.41.699a5.434 5.434 0 0 0-1.804 1.82c-.77 1.418-.77 1.418-.77 4.645v21.625c-.016 1.398.012 2.71.313 4.07.312.926.972 1.688 1.695 2.336.867.625 1.723 1.023 2.793 1.156a6 6 0 0 0 .46.012c.794 0 1.563-.145 2.298-.492a6.664 6.664 0 0 0 2.386-2.278c.649-1.238.649-1.238.637-4.441v-21.637c0-1.011.024-2.023-.098-3.023-.191-1.094-.578-1.973-1.273-2.84-.617-.652-1.328-1.098-2.168-1.41a6.115 6.115 0 0 0-1.398-.254Zm0 0"/></clipPath><clipPath id="i"><path d="M.438.68h10.695v36.46H.438Zm0 0"/></clipPath><clipPath id="j"><path d="M5.523.723c-.808.05-1.601.289-2.41.699a5.434 5.434 0 0 0-1.804 1.82C.539 4.66.539 4.66.539 7.887v21.625c-.016 1.398.012 2.71.313 4.07.312.926.972 1.688 1.695 2.336.867.625 1.723 1.023 2.793 1.156a6 6 0 0 0 .46.012c.794 0 1.563-.145 2.298-.492a6.664 6.664 0 0 0 2.386-2.278c.649-1.238.649-1.238.637-4.441V8.238c0-1.011.024-2.023-.098-3.023-.191-1.094-.578-1.973-1.273-2.84-.617-.652-1.328-1.098-2.168-1.41A6.115 6.115 0 0 0 6.184.71Zm0 0"/></clipPath><clipPath id="h"><path d="M0 0h12v38H0z"/></clipPath><clipPath id="k"><path d="M17.184 159.582H83.77v47.61H17.184Zm0 0"/></clipPath><clipPath id="l"><path d="m78.008 159.625-3.348 1.121c-1.297 1.156-1.863 3.024-1.273 4.77 4.32 12.992-2.735 27.078-15.727 31.398a24.547 24.547 0 0 1-7.812 1.277c-10.403 0-20.121-6.597-23.586-17a4.473 4.473 0 0 0-3.88-3.058l-3.347 1.12a4.47 4.47 0 0 0-1.273 4.767c2.851 8.562 8.86 15.507 16.937 19.554 4.77 2.383 9.922 3.598 15.102 3.598 3.586 0 7.199-.574 10.703-1.742 8.57-2.856 15.508-8.864 19.55-16.942 4.048-8.078 4.696-17.242 1.856-25.804a4.486 4.486 0 0 0-3.875-3.059Zm0 0"/></clipPath><clipPath id="n"><path d="M.184.602H66.77v47.59H.184Zm0 0"/></clipPath><clipPath id="o"><path d="M61.008.625 57.66 1.746c-1.297 1.156-1.863 3.024-1.273 4.77 4.32 12.992-2.735 27.078-15.727 31.398a24.547 24.547 0 0 1-7.812 1.277c-10.403 0-20.121-6.597-23.586-17a4.473 4.473 0 0 0-3.88-3.058l-3.347 1.12A4.47 4.47 0 0 0 .762 25.02c2.851 8.562 8.86 15.507 16.937 19.554 4.77 2.383 9.922 3.598 15.102 3.598 3.586 0 7.199-.574 10.703-1.742 8.57-2.856 15.508-8.864 19.55-16.942 4.048-8.078 4.696-17.242 1.856-25.804A4.486 4.486 0 0 0 61.035.625Zm0 0"/></clipPath><clipPath id="m"><path d="M0 0h67v49H0z"/></clipPath><clipPath id="p"><path d="M0 0h108v91H0z"/></clipPath><clipPath id="q"><path d="M0 0h218v21H0z"/></clipPath></defs><g clip-path="url(#a)"><g clip-path="url(#b)"><g clip-path="url(#c)" transform="translate(16 146)"><g clip-path="url(#d)"><g clip-path="url(#e)"><path fill="#001c3d" d="M-98.5-228.5h540v540h-540z"/></g></g></g></g></g><g clip-path="url(#f)"><g clip-path="url(#g)"><g clip-path="url(#h)" transform="translate(44 139)"><g clip-path="url(#i)"><g clip-path="url(#j)"><path fill="#001c3d" d="M-126.5-221.5h540v540h-540z"/></g></g></g></g></g><g clip-path="url(#k)"><g clip-path="url(#l)"><g clip-path="url(#m)" transform="translate(17 159)"><g clip-path="url(#n)"><g clip-path="url(#o)"><path fill="#57bf93" d="M-99.5-241.5h540v540h-540z"/></g></g></g></g></g><g fill="#001c3d" clip-path="url(#p)" transform="translate(85 127)"><path d="M46.975 61.494v9.547H7.178V19.635h38.844v9.546H19.006v11.157h23.86v9.265h-23.86v11.891Zm44.21-16.969h10.875v20.86c-2.793 2.105-6.028 3.718-9.704 4.843-3.667 1.125-7.359 1.688-11.078 1.688-5.343 0-10.148-1.133-14.406-3.406-4.25-2.282-7.59-5.438-10.016-9.47-2.43-4.038-3.64-8.609-3.64-13.702 0-5.094 1.21-9.657 3.64-13.688 2.426-4.039 5.79-7.195 10.094-9.469 4.313-2.28 9.16-3.421 14.547-3.421 4.5 0 8.582.761 12.25 2.28 3.676 1.513 6.766 3.712 9.266 6.595l-7.64 7.062c-3.669-3.875-8.102-5.812-13.298-5.812-3.281 0-6.195.687-8.734 2.062-2.543 1.367-4.527 3.297-5.953 5.797-1.418 2.5-2.125 5.367-2.125 8.594 0 3.187.707 6.031 2.125 8.531a15.111 15.111 0 0 0 5.922 5.828c2.52 1.399 5.394 2.094 8.625 2.094 3.425 0 6.507-.735 9.25-2.203Zm0 0"/></g><path fill="#001c3d" d="M221.484 192.667c-.594.543-1.336.954-2.219 1.235a8.937 8.937 0 0 1-2.75.422c-2.21 0-3.914-.594-5.11-1.782-1.198-1.195-1.796-2.882-1.796-5.062v-14.25h-4.203v-2.688h4.203v-5.156h3.188v5.156h7.171v2.688h-7.171v14.062c0 1.407.347 2.477 1.046 3.204.707.73 1.72 1.093 3.032 1.093a5.69 5.69 0 0 0 1.89-.312 4.732 4.732 0 0 0 1.594-.89Zm8.826-17.515c.737-1.582 1.847-2.774 3.327-3.578 1.477-.813 3.313-1.219 5.5-1.219v3.094l-.765-.047c-2.48 0-4.422.765-5.829 2.297-1.406 1.523-2.109 3.656-2.109 6.406v12h-3.172v-23.563h3.047Zm23.147-4.797c3.082 0 5.441.773 7.078 2.312 1.645 1.543 2.469 3.82 2.469 6.829v14.609h-3.047v-3.672c-.719 1.219-1.773 2.172-3.156 2.86-1.387.687-3.04 1.03-4.953 1.03-2.625 0-4.715-.624-6.266-1.874-1.555-1.25-2.328-2.907-2.328-4.969 0-2 .723-3.613 2.172-4.844 1.445-1.226 3.754-1.844 6.922-1.844h7.468v-1.421c0-2.032-.57-3.579-1.703-4.641-1.125-1.063-2.781-1.594-4.968-1.594-1.493 0-2.922.25-4.297.75-1.375.492-2.555 1.168-3.532 2.031l-1.437-2.375c1.195-1.007 2.629-1.789 4.297-2.343a16.49 16.49 0 0 1 5.281-.844Zm-1.11 21.469c1.79 0 3.329-.41 4.61-1.235 1.281-.82 2.234-2.007 2.86-3.562v-3.86h-7.391c-4.031 0-6.047 1.407-6.047 4.22 0 1.374.52 2.46 1.562 3.25 1.051.792 2.52 1.187 4.407 1.187Zm31.301-21.469c2.957 0 5.305.86 7.047 2.578 1.75 1.719 2.625 4.227 2.625 7.516v13.656h-3.172v-13.344c0-2.445-.617-4.312-1.844-5.594-1.218-1.289-2.964-1.937-5.234-1.937-2.543 0-4.555.758-6.031 2.266-1.48 1.511-2.219 3.593-2.219 6.25v12.359h-3.172v-23.563h3.047v4.344c.863-1.437 2.063-2.55 3.594-3.344 1.539-.789 3.328-1.187 5.36-1.187Zm24.635 23.969a18.04 18.04 0 0 1-5.484-.828c-1.75-.551-3.118-1.243-4.094-2.079l1.422-2.515c.988.781 2.226 1.422 3.718 1.922 1.5.492 3.051.734 4.657.734 2.156 0 3.75-.332 4.781-1 1.031-.676 1.547-1.629 1.547-2.86 0-.863-.29-1.538-.86-2.03-.562-.5-1.28-.876-2.156-1.126-.867-.25-2.012-.492-3.437-.734-1.918-.363-3.461-.726-4.625-1.094a6.788 6.788 0 0 1-2.969-1.906c-.824-.906-1.234-2.144-1.234-3.719 0-1.976.816-3.593 2.453-4.843 1.644-1.258 3.93-1.891 6.86-1.891 1.53 0 3.054.203 4.577.61 1.52.406 2.774.937 3.766 1.593l-1.39 2.547c-1.95-1.344-4.266-2.016-6.954-2.016-2.031 0-3.562.36-4.594 1.078-1.023.72-1.53 1.665-1.53 2.829 0 .898.284 1.617.858 2.156.582.531 1.305.93 2.172 1.187.875.25 2.07.512 3.594.782 1.883.355 3.39.714 4.516 1.078a6.613 6.613 0 0 1 2.906 1.828c.812.867 1.219 2.058 1.219 3.578 0 2.062-.86 3.7-2.578 4.906-1.711 1.211-4.09 1.813-7.141 1.813Zm0 0"/><g fill="#001c3d" clip-path="url(#q)" transform="translate(91 203)"><path d="M2.15 4.572h4.563c1.175 0 2.218.242 3.125.719a5.122 5.122 0 0 1 2.109 1.984c.508.844.766 1.813.766 2.906 0 1.086-.258 2.055-.766 2.907a5.224 5.224 0 0 1-2.11 1.984c-.906.469-1.949.703-3.124.703H2.15Zm4.485 10.172c.988 0 1.847-.192 2.578-.578a4.197 4.197 0 0 0 1.718-1.61c.407-.687.61-1.476.61-2.375 0-.894-.203-1.687-.61-2.375a4.207 4.207 0 0 0-1.718-1.625c-.73-.383-1.59-.578-2.578-.578H3.338v9.14Zm8.478-7.391h1.14v8.422h-1.14Zm.578-1.828a.8.8 0 0 1-.828-.828c0-.207.078-.39.234-.547a.784.784 0 0 1 .594-.25.79.79 0 0 1 .578.234.74.74 0 0 1 .25.547.831.831 0 0 1-.828.844Zm10.803 1.828-3.75 8.422h-1.156l-3.735-8.422h1.188l3.156 7.172 3.172-7.172Zm1.592 0h1.14v8.422h-1.14Zm.578-1.828a.8.8 0 0 1-.828-.828c0-.207.078-.39.234-.547a.784.784 0 0 1 .594-.25.79.79 0 0 1 .578.234.74.74 0 0 1 .25.547.831.831 0 0 1-.828.844Zm5.99 10.328a6.443 6.443 0 0 1-1.968-.297c-.625-.195-1.11-.441-1.453-.734l.5-.906c.351.28.796.511 1.328.687.539.18 1.097.266 1.672.266.77 0 1.335-.117 1.703-.36.363-.238.547-.578.547-1.015 0-.313-.106-.555-.313-.735a1.892 1.892 0 0 0-.766-.39c-.304-.094-.71-.188-1.218-.281a15.71 15.71 0 0 1-1.657-.375 2.357 2.357 0 0 1-1.062-.688c-.293-.32-.438-.766-.438-1.328 0-.707.29-1.285.875-1.734.594-.446 1.41-.672 2.454-.672.539 0 1.082.074 1.625.218.55.149 1.003.336 1.359.563l-.5.922c-.7-.477-1.527-.719-2.484-.719-.73 0-1.278.133-1.641.39-.367.25-.547.587-.547 1 0 .325.102.579.313.766.207.188.46.328.765.422.313.094.738.188 1.281.281.676.125 1.22.258 1.625.391.407.125.75.344 1.032.656.289.305.437.73.437 1.282 0 .73-.308 1.312-.922 1.75-.617.43-1.465.64-2.547.64Zm5.556-8.5h1.142v8.422H40.21Zm.579-1.828a.8.8 0 0 1-.828-.828c0-.207.078-.39.234-.547a.784.784 0 0 1 .594-.25.79.79 0 0 1 .578.234.74.74 0 0 1 .25.547.831.831 0 0 1-.828.844Zm7.178 10.328c-.813 0-1.547-.18-2.203-.547a4.115 4.115 0 0 1-1.531-1.531c-.375-.644-.563-1.379-.563-2.203 0-.82.188-1.555.563-2.203a4.005 4.005 0 0 1 1.53-1.531c.657-.364 1.391-.547 2.204-.547.8 0 1.523.183 2.172.547a3.9 3.9 0 0 1 1.531 1.53c.375.65.563 1.384.563 2.204 0 .824-.188 1.559-.563 2.203a4.005 4.005 0 0 1-1.531 1.531c-.649.367-1.371.547-2.172.547Zm0-1c.594 0 1.125-.133 1.594-.406a2.89 2.89 0 0 0 1.11-1.172c.269-.5.405-1.066.405-1.703 0-.645-.136-1.219-.406-1.719a2.803 2.803 0 0 0-1.11-1.156 3.14 3.14 0 0 0-1.593-.406c-.605 0-1.148.136-1.625.406-.469.273-.84.656-1.11 1.156-.273.5-.406 1.074-.406 1.719 0 .637.133 1.203.407 1.703.27.5.64.89 1.109 1.172.477.273 1.02.406 1.625.406ZM58.84 7.29c1.051 0 1.891.31 2.516.923.625.617.937 1.511.937 2.687v4.875h-1.14v-4.766c0-.875-.219-1.539-.656-2-.438-.457-1.063-.687-1.875-.687-.907 0-1.625.273-2.157.812-.523.532-.78 1.274-.78 2.22v4.421h-1.142V7.353h1.094v1.563a3.211 3.211 0 0 1 1.281-1.188c.551-.289 1.192-.437 1.922-.437Zm14.177 8.563c-.813 0-1.547-.18-2.203-.547a4.115 4.115 0 0 1-1.531-1.531c-.375-.644-.563-1.379-.563-2.203 0-.82.188-1.555.563-2.203a4.005 4.005 0 0 1 1.53-1.531c.657-.364 1.391-.547 2.204-.547.8 0 1.523.183 2.172.547a3.9 3.9 0 0 1 1.531 1.53c.375.65.563 1.384.563 2.204 0 .824-.188 1.559-.563 2.203a4.005 4.005 0 0 1-1.531 1.531c-.649.367-1.371.547-2.172.547Zm0-1c.594 0 1.125-.133 1.594-.406a2.89 2.89 0 0 0 1.11-1.172c.269-.5.405-1.066.405-1.703 0-.645-.136-1.219-.406-1.719a2.803 2.803 0 0 0-1.11-1.156 3.14 3.14 0 0 0-1.593-.406c-.606 0-1.148.136-1.625.406-.469.273-.84.656-1.11 1.156-.273.5-.406 1.074-.406 1.719 0 .637.133 1.203.407 1.703.27.5.64.89 1.109 1.172.477.273 1.02.406 1.625.406ZM82.39 4.79c-.5 0-.875.137-1.125.407-.25.262-.375.652-.375 1.172v.984h2.594v.969h-2.562v7.453h-1.125V8.322H78.28v-.969h1.516V6.322c0-.77.218-1.379.656-1.828.445-.446 1.07-.672 1.875-.672.32 0 .633.047.937.14.301.086.551.215.75.391l-.39.844c-.325-.27-.735-.406-1.235-.406Zm19.194 9.954v1.031h-7.922V4.572h7.672v1.031h-6.485v3.985h5.782v1h-5.782v4.156Zm2.779-10.172h1.188v10.172h6.265v1.031h-7.453Zm14.313 11.297c-1.106 0-2.11-.242-3.016-.735a5.477 5.477 0 0 1-2.11-2.046c-.511-.864-.765-1.832-.765-2.907 0-1.082.254-2.054.766-2.922a5.411 5.411 0 0 1 2.109-2.03c.906-.5 1.91-.75 3.016-.75 1.113 0 2.113.245 3 .734a5.421 5.421 0 0 1 2.109 2.046c.508.868.766 1.84.766 2.922 0 1.075-.258 2.047-.766 2.922a5.41 5.41 0 0 1-2.11 2.031c-.886.493-1.886.735-3 .735Zm0-1.047c.882 0 1.68-.195 2.39-.594a4.392 4.392 0 0 0 1.688-1.672c.406-.707.61-1.5.61-2.375s-.204-1.664-.61-2.375a4.287 4.287 0 0 0-1.688-1.672c-.71-.394-1.508-.593-2.39-.593-.887 0-1.688.199-2.407.593a4.378 4.378 0 0 0-1.703 1.672c-.406.711-.61 1.5-.61 2.375s.204 1.668.61 2.375a4.49 4.49 0 0 0 1.703 1.672c.72.399 1.52.594 2.407.594Zm20.154-10.25v11.203h-1.14V6.822l-4.39 7.531h-.563l-4.406-7.484v8.906h-1.125V4.572h.968l4.86 8.312 4.828-8.312Zm10.668 8.218h-6.235l-1.343 2.985h-1.235l5.125-11.203h1.156l5.125 11.203h-1.25Zm-.422-.968-2.688-6.016-2.687 6.016Zm16.957-1.641h1.125v4.266a5.52 5.52 0 0 1-1.86 1.062c-.71.243-1.46.36-2.25.36-1.117 0-2.12-.242-3.015-.735a5.477 5.477 0 0 1-2.125-2.03c-.512-.876-.766-1.848-.766-2.923 0-1.082.254-2.054.766-2.922a5.489 5.489 0 0 1 2.125-2.046c.894-.489 1.906-.735 3.031-.735.852 0 1.633.137 2.344.406.719.274 1.32.672 1.812 1.204l-.734.765c-.887-.875-2.012-1.312-3.375-1.312-.906 0-1.727.199-2.453.593a4.341 4.341 0 0 0-1.719 1.672c-.418.711-.625 1.5-.625 2.375s.207 1.668.625 2.375c.414.7.985 1.25 1.703 1.657.727.406 1.547.609 2.453.609 1.157 0 2.133-.29 2.938-.875Zm12.115 5.594-2.563-3.594a8.072 8.072 0 0 1-.89.047h-3v3.547h-1.188V4.572h4.188c1.426 0 2.547.344 3.36 1.031.812.68 1.218 1.617 1.218 2.813 0 .875-.227 1.617-.672 2.218-.437.606-1.07 1.04-1.89 1.297l2.734 3.844Zm-3.484-4.562c1.101 0 1.945-.243 2.53-.735.595-.488.891-1.176.891-2.062 0-.907-.296-1.598-.89-2.078-.586-.489-1.43-.735-2.531-.735h-2.97v5.61Zm12.299 4.656c-1.105 0-2.11-.242-3.015-.735a5.477 5.477 0 0 1-2.11-2.046c-.512-.864-.765-1.832-.765-2.907 0-1.082.253-2.054.765-2.922a5.411 5.411 0 0 1 2.11-2.03c.906-.5 1.91-.75 3.015-.75 1.113 0 2.113.245 3 .734a5.421 5.421 0 0 1 2.11 2.046c.507.868.765 1.84.765 2.922 0 1.075-.258 2.047-.765 2.922a5.41 5.41 0 0 1-2.11 2.031c-.887.493-1.887.735-3 .735Zm0-1.047c.883 0 1.68-.195 2.39-.594a4.392 4.392 0 0 0 1.688-1.672c.407-.707.61-1.5.61-2.375s-.203-1.664-.61-2.375a4.287 4.287 0 0 0-1.687-1.672c-.711-.394-1.508-.593-2.39-.593-.888 0-1.688.199-2.407.593a4.378 4.378 0 0 0-1.703 1.672c-.406.711-.61 1.5-.61 2.375s.204 1.668.61 2.375a4.483 4.483 0 0 0 1.703 1.672c.719.399 1.52.594 2.406.594Zm13.046 1.047c-1.461 0-2.594-.414-3.406-1.25-.805-.832-1.203-2.04-1.203-3.625V4.572h1.171v6.375c0 1.305.29 2.277.875 2.922.594.637 1.446.953 2.563.953 1.113 0 1.96-.316 2.547-.953.594-.645.89-1.617.89-2.922V4.572h1.141v6.422c0 1.586-.402 2.793-1.203 3.625-.805.836-1.93 1.25-3.375 1.25ZM212.35 4.572c1.426 0 2.547.344 3.36 1.031.812.68 1.218 1.617 1.218 2.813 0 1.199-.406 2.136-1.219 2.812-.812.68-1.933 1.016-3.36 1.016h-3v3.531h-1.187V4.572Zm-.031 6.625c1.101 0 1.945-.238 2.53-.719.595-.488.891-1.176.891-2.062 0-.907-.296-1.598-.89-2.078-.586-.489-1.43-.735-2.531-.735h-2.97v5.594Zm0 0"/></g></svg>